<svg xmlns="http://www.w3.org/2000/svg" viewBox="0 0 640 420" role="img" aria-label="Bolsas">
  <defs>
    <linearGradient id="bg" x1="0" y1="0" x2="1" y2="1">
      <stop offset="0" stop-color="#eef3f8"/>
      <stop offset="1" stop-color="#cbd8e5"/>
    </linearGradient>
    <linearGradient id="bag" x1="0" y1="0" x2="0" y2="1">
      <stop offset="0" stop-color="#ffffff"/>
      <stop offset="1" stop-color="#c9d6df"/>
    </linearGradient>
  </defs>
  <rect width="640" height="420" rx="38" fill="url(#bg)"/>
  <ellipse cx="326" cy="348" rx="236" ry="32" fill="#536b8f" opacity=".16"/>
  <path d="M144 326h142l-18-188h-42c-7 31-69 31-76 0h-42z" fill="url(#bag)"/>
  <path d="M159 138c3-42 55-64 85-26 7 9 11 18 12 26" fill="none" stroke="#94a4b5" stroke-width="16" stroke-linecap="round"/>
  <path d="M358 324h142l-16-168h-40c-8 28-62 28-70 0h-38z" fill="#156b73"/>
  <path d="M374 156c5-35 48-53 75-23 7 7 11 15 12 23" fill="none" stroke="#0f5157" stroke-width="15" stroke-linecap="round"/>
  <rect x="194" y="204" width="40" height="58" rx="8" fill="#d45b3f" opacity=".9"/>
  <rect x="402" y="210" width="46" height="62" rx="10" fill="#f7f1df" opacity=".92"/>
  <path d="M94 322c116 20 326 20 452 0" fill="none" stroke="#ffffff" stroke-width="10" opacity=".58"/>
</svg>
