<svg xmlns="http://www.w3.org/2000/svg" viewBox="0 0 640 420" role="img" aria-label="Bebidas">
  <defs>
    <linearGradient id="bg" x1="0" y1="0" x2="1" y2="1">
      <stop offset="0" stop-color="#d9f2ef"/>
      <stop offset="1" stop-color="#8fcfc7"/>
    </linearGradient>
    <linearGradient id="glass" x1="0" y1="0" x2="0" y2="1">
      <stop offset="0" stop-color="#f8ffff"/>
      <stop offset="1" stop-color="#a8d8e4"/>
    </linearGradient>
  </defs>
  <rect width="640" height="420" rx="38" fill="url(#bg)"/>
  <ellipse cx="328" cy="348" rx="234" ry="32" fill="#156b73" opacity=".16"/>
  <rect x="118" y="116" width="96" height="210" rx="28" fill="#d45b3f"/>
  <rect x="134" y="80" width="64" height="56" rx="18" fill="#b64031"/>
  <rect x="137" y="184" width="58" height="82" rx="13" fill="#fff7ed" opacity=".93"/>
  <circle cx="166" cy="224" r="19" fill="#af7b12"/>
  <rect x="252" y="86" width="112" height="244" rx="32" fill="url(#glass)"/>
  <rect x="276" y="48" width="64" height="60" rx="18" fill="#156b73"/>
  <rect x="272" y="178" width="72" height="92" rx="15" fill="#156b73" opacity=".86"/>
  <path d="M286 224c18-32 43-33 62 0" fill="none" stroke="#ffffff" stroke-width="12" stroke-linecap="round"/>
  <rect x="406" y="125" width="116" height="202" rx="26" fill="#f5f1de"/>
  <path d="M406 156h116v54H406z" fill="#18805a"/>
  <path d="M427 241c23-22 49-22 72 0v51h-72z" fill="#d45b3f"/>
</svg>
